# xmcd CD database file
#
# Track frame offsets:
#	150
#	89040
#	138657
#
# Disc length: 3667 seconds
#
# Revision: 1
# Processed by: cddbd v1.5.1PL0 Copyright (c) Steve Scherf et al.
# Submitted via: CDex 1.50
#
DISCID=280e5103
DTITLE=Todd Norian - Deep Peace
DYEAR=1996
DGENRE=New Age
TTITLE0=Heart Space
TTITLE1=Body of Light
TTITLE2=Deep Peace
EXTD=YEAR: 1996
EXTT0=
EXTT1=
EXTT2=
PLAYORDER=
